<svg xmlns="http://www.w3.org/2000/svg" xmlns:xlink="http://www.w3.org/1999/xlink" id="svg1925" width="256" height="256" version="1.0"><defs id="defs1927"><linearGradient id="linearGradient4073"><stop id="stop4075" offset="0" stop-color="#fff"/><stop id="stop4077" offset="1" stop-color="#fff" stop-opacity="0"/></linearGradient><linearGradient id="linearGradient3037" x1="221.02" x2="119.92" y1="674.08" y2="474.09" gradientTransform="translate(-45.008 -319.11)" gradientUnits="userSpaceOnUse"><stop id="stop12145" offset="0" stop-color="red"/><stop id="stop8725" offset="1" stop-color="#ffe0e0"/></linearGradient><linearGradient id="linearGradient3039" x1="139.43" x2="222.74" y1="520.74" y2="520.74" gradientTransform="matrix(.54556 0 0 .35026 -38.517 72.607)" gradientUnits="userSpaceOnUse" xlink:href="#linearGradient4073"/><linearGradient id="linearGradient3041" x1="296.2" x2="220.84" y1="571.53" y2="421.62" gradientTransform="matrix(1.3342 0 0 1.3342 -90.283 -537.51)" gradientUnits="userSpaceOnUse"><stop id="stop6850" offset="0" stop-color="#00f"/><stop id="stop6852" offset="1" stop-color="#e0e0ff"/></linearGradient><linearGradient id="linearGradient3043" x1="139.63" x2="222.74" y1="520.74" y2="520.74" gradientTransform="matrix(.54556 0 0 .35026 91.483 -57.393)" gradientUnits="userSpaceOnUse" xlink:href="#linearGradient4073"/><linearGradient id="linearGradient3045" x1="221.02" x2="296.73" y1="421.62" y2="571.53" gradientTransform="matrix(1.3342 0 0 1.3342 54.717 -442.51)" gradientUnits="userSpaceOnUse"><stop id="stop6856" offset="0" stop-color="#ffffe0"/><stop id="stop6858" offset="1" stop-color="#ff0"/></linearGradient><linearGradient id="linearGradient3047" x1="139.43" x2="222.74" y1="520.74" y2="520.74" gradientTransform="matrix(.54556 0 0 .35026 236.48 37.607)" gradientUnits="userSpaceOnUse" xlink:href="#linearGradient4073"/></defs><metadata id="metadata1930"/><g id="layer1" transform="translate(-15.956 -11.243)"><path id="path2858" fill="none" stroke="#646464" stroke-dasharray="17.375 17.375" stroke-dashoffset="15.637" stroke-linejoin="round" stroke-width="5.792" d="m194 279c0 88.366-71.634 160-160 160s-160-71.634-160-160 71.634-160 160-160 160 71.634 160 160z" transform="matrix(.69067 0 0 .69067 120.47 -53.452)"/><path id="path2847" fill="none" stroke-dasharray="3 9" stroke-linecap="round" stroke-linejoin="round" stroke-width="3" d="m171 186.5c0 80.91-65.59 146.5-146.5 146.5s-146.5-65.59-146.5-146.5 65.59-146.5 146.5-146.5 146.5 65.59 146.5 146.5z" transform="matrix(1.3548 0 0 1.3555 239.31 17.073)"/><path id="path2849" fill="none" stroke-dasharray="3 9" stroke-linecap="round" stroke-linejoin="round" stroke-width="3" d="m63 174c0 46.392-18.804 84-42 84s-42-37.608-42-84 18.804-84 42-84 42 37.608 42 84z" transform="matrix(1.3548 0 0 1.3555 244.05 34.016)"/><g id="g2051" transform="matrix(.31579 0 0 .30303 61.061 85.628)"><path id="rect1393" fill="url(#linearGradient3037)" d="m69.34 155h111.32c24.564 0 44.34 19.775 44.34 44.34v111.32c0 24.564-19.775 44.34-44.34 44.34h-111.32c-24.565 0-44.34-19.78-44.34-44.34v-111.32c0-24.564 19.775-44.34 44.34-44.34z"/><path id="path2231" fill="red" fill-rule="evenodd" d="m182.06 230.01c-48.531 0.52516-61.796 56.691-104.9 57.25-18.636 0.23541-34.53-12.554-52.158-27.699v51.652c0 24.249 19.797 43.791 44.361 43.791h111.32c24.564 0 44.319-19.543 44.319-43.791v-70.255c-12.032-6.6067-25.966-11.136-42.944-10.948z" opacity=".25"/><rect id="rect3182" width="33" height="150" x="50" y="180" fill="url(#linearGradient3039)" rx="17.033" ry="17.033"/><path id="path37247" fill="none" stroke="maroon" stroke-linejoin="round" stroke-miterlimit="20" stroke-opacity=".502" stroke-width="12.686" d="m69.468 161.34h111.19c21.128 0 37.997 16.879 37.997 38.006v111.32c0 21.135-16.865 37.988-37.997 37.988h-111.32c-21.132 0-37.997-16.86-37.997-37.988v-111.36c0-21.132 16.991-37.968 38.125-37.968z"/><path id="path5922" fill="url(#linearGradient3041)" d="m199.34 25h111.32c24.564 0 44.34 19.775 44.34 44.34v111.32c0 24.564-19.775 44.34-44.34 44.34h-111.32c-24.56 0-44.34-19.78-44.34-44.34v-111.32c0-24.564 19.775-44.34 44.34-44.34z"/><path id="path5924" fill="#00f" fill-rule="evenodd" d="m312.06 100.01c-48.53 0.52-61.8 56.69-104.9 57.25-18.64 0.23-34.53-12.56-52.16-27.7v51.652c0 24.249 19.797 43.791 44.361 43.791h111.32c24.564 0 44.319-19.543 44.319-43.791v-70.255c-12.032-6.6067-25.966-11.136-42.944-10.948z" opacity=".25"/><rect id="rect5926" width="33" height="150" x="180" y="50" fill="url(#linearGradient3043)" rx="17.033" ry="17.033"/><path id="path41636" fill="none" stroke="navy" stroke-linejoin="round" stroke-miterlimit="20" stroke-opacity=".502" stroke-width="12.686" d="m199.47 31.343h111.19c21.128 0 37.997 16.879 37.997 38.006v111.32c0 21.135-16.865 37.988-37.997 37.988h-111.32c-21.132 0-37.997-16.86-37.997-37.988v-111.36c0-21.132 16.991-37.968 38.125-37.968z"/><path id="path5936" fill="url(#linearGradient3045)" d="m344.34 120h111.32c24.564 0 44.34 19.775 44.34 44.34v111.32c0 24.564-19.775 44.34-44.34 44.34h-111.32c-24.56 0-44.34-19.78-44.34-44.34v-111.32c0-24.564 19.775-44.34 44.34-44.34z"/><path id="path5938" fill="#c0c000" fill-rule="evenodd" d="m457.06 195.01c-48.53 0.52-61.8 56.69-104.9 57.25-18.64 0.23-34.53-12.56-52.16-27.7v51.652c0 24.249 19.797 43.791 44.361 43.791h111.32c24.56 0 44.32-19.54 44.32-43.79v-70.255c-12.032-6.6067-25.966-11.136-42.944-10.948z" opacity=".25"/><rect id="rect5940" width="33" height="150" x="325" y="145" fill="url(#linearGradient3047)" rx="17.033" ry="17.033"/><path id="path42512" fill="none" stroke="olive" stroke-linejoin="round" stroke-miterlimit="20" stroke-opacity=".502" stroke-width="12.686" d="m344.47 126.34h111.19c21.128 0 37.997 16.879 37.997 38.006v111.32c0 21.135-16.865 37.988-37.997 37.988h-111.32c-21.132 0-37.997-16.86-37.997-37.988v-111.36c0-21.132 16.991-37.968 38.125-37.968z"/></g><g id="g2250" transform="matrix(.64615 0 0 .64615 -284.98 166.38)"><circle id="circle2226" cx="99" cy="100" r="65" fill="navy" d="m 164,100 c 0,35.89851 -29.10149,65 -65,65 -35.898509,0 -65,-29.10149 -65,-65 0,-35.898509 29.101491,-65 65,-65 35.89851,0 65,29.101491 65,65 z" transform="translate(673.16 -250.33)"/><circle id="circle2228" cx="125" cy="73" r="19" fill="#fff" d="m 144,73 c 0,10.49341 -8.50659,19 -19,19 -10.49341,0 -19,-8.50659 -19,-19 0,-10.49341 8.50659,-19 19,-19 10.49341,0 19,8.50659 19,19 z" transform="translate(673.16 -250.33)"/><text id="text2232" x="722.161" y="-118.33" fill="#fff" font-family="Arial" font-size="60">Lua</text></g></g></svg>